<svg width="29" height="25" viewBox="0 0 29 25" fill="none" xmlns="http://www.w3.org/2000/svg">
<path fill-rule="evenodd" clip-rule="evenodd" d="M8.46447 4.46447C9.40215 3.52678 10.6739 3 12 3C13.3261 3 14.5979 3.52678 15.5355 4.46447C16.4732 5.40215 17 6.67392 17 8V9H19C19.5201 9 19.9534 9.39866 19.9965 9.91695L20.9965 21.917C21.0198 22.1956 20.9252 22.4713 20.7359 22.6771C20.5465 22.8829 20.2797 23 20 23H4C3.72035 23 3.45348 22.8829 3.26412 22.6771C3.07477 22.4713 2.98023 22.1956 3.00346 21.917L4.00346 9.91695C4.04665 9.39866 4.47991 9 5 9H7V8C7 6.67392 7.52679 5.40215 8.46447 4.46447ZM7 11V12C7 12.5523 7.44772 13 8 13C8.55229 13 9 12.5523 9 12V11H15V12C15 12.5523 15.4477 13 16 13C16.5523 13 17 12.5523 17 12V11H18.0799L18.9132 21H5.0868L5.92014 11H7ZM15 9H9V8C9 7.20435 9.31607 6.44129 9.87868 5.87868C10.4413 5.31607 11.2044 5 12 5C12.7957 5 13.5587 5.31607 14.1213 5.87868C14.6839 6.44129 15 7.20435 15 8V9Z" fill="#9EA0AA" style="fill:#9EA0AA;fill:color(display-p3 0.6196 0.6275 0.6667);fill-opacity:1;"/>
<rect x="12.5" y="0.5" width="16" height="16" rx="8" fill="#B62D11" style="fill:#B62D11;fill:color(display-p3 0.7135 0.1768 0.0649);fill-opacity:1;"/>
<rect x="12.5" y="0.5" width="16" height="16" rx="8" stroke="#B62D11" style="stroke:#B62D11;stroke:color(display-p3 0.7135 0.1768 0.0649);stroke-opacity:1;"/>
<path d="M19.704 12.5799V6.73592H18V5.81192C18.712 5.81192 19.188 5.71192 19.428 5.51192C19.668 5.31192 19.788 4.94792 19.788 4.41992H20.784V12.5799H19.704Z" fill="white" style="fill:white;fill-opacity:1;"/>
</svg>
